<svg viewBox="0 0 24 24" xmlns="http://www.w3.org/2000/svg"><path d="M22.56 12.25c0-.78-.07-1.53-.2-2.25H12v4.26h5.92c-.18 1-.76 1.85-1.61 2.42v2.01h2.61c1.52-1.41 2.4-3.48 2.4-5.44z" fill="#4285F4"/><path d="M12 23c2.97 0 5.46-.98 7.28-2.66l-3.57-2.77c-1 .67-2.28 1.07-3.71 1.07-2.86 0-5.29-1.93-6.16-4.53H3.09v2.13C4.91 19.95 8.21 23 12 23z" fill="#34A853"/><path d="M5.84 14.11c-.22-.66-.35-1.36-.35-2.11s.13-1.45.35-2.11V7.76H3.09c-.7 1.41-1.09 3-1.09 4.69s.39 3.28 1.09 4.69l2.75-2.13z" fill="#FBBC05"/><path d="M12 5.38c1.62 0 3.06.56 4.21 1.64l3.15-3.15C17.45 2.09 14.97 1 12 1 8.21 1 4.91 4.05 3.09 8.14l2.75 2.13c.87-2.6 3.3-4.53 6.16-4.53z" fill="#EA4335"/></svg>